<?xml version="1.0" encoding="UTF-8" standalone="no"?>
<!-- Created with Inkscape (http://www.inkscape.org/) -->

<svg
   width="210.96111mm"
   height="137.58333mm"
   viewBox="0 0 210.96111 137.58333"
   version="1.1"
   id="svg5"
   inkscape:version="1.1.1 (3bf5ae0d25, 2021-09-20)"
   sodipodi:docname="majibo-logo.svg"
   xmlns:inkscape="http://www.inkscape.org/namespaces/inkscape"
   xmlns:sodipodi="http://sodipodi.sourceforge.net/DTD/sodipodi-0.dtd"
   xmlns="http://www.w3.org/2000/svg"
   xmlns:svg="http://www.w3.org/2000/svg">
  <sodipodi:namedview
     id="namedview7"
     pagecolor="#ffffff"
     bordercolor="#666666"
     borderopacity="1.0"
     inkscape:pageshadow="2"
     inkscape:pageopacity="0.0"
     inkscape:pagecheckerboard="0"
     inkscape:document-units="mm"
     showgrid="false"
     fit-margin-top="0"
     fit-margin-left="0"
     fit-margin-right="0"
     fit-margin-bottom="0"
     inkscape:zoom="0.37059484"
     inkscape:cx="468.16626"
     inkscape:cy="354.83495"
     inkscape:window-width="1920"
     inkscape:window-height="1017"
     inkscape:window-x="-8"
     inkscape:window-y="-8"
     inkscape:window-maximized="1"
     inkscape:current-layer="layer1" />
  <defs
     id="defs2">
    <clipPath
       id="_clipPath_4Tr2ajuTydm2l6BWdf462xko6JMYWPoe">
      <rect
         width="1024"
         height="768"
         id="rect9"
         x="0"
         y="0" />
    </clipPath>
    <clipPath
       id="_clipPath_KLBeWBfeRswneMGhagdnqWEbSEmh6C3Y">
      <rect
         width="1024"
         height="768"
         id="rect47"
         x="0"
         y="0" />
    </clipPath>
  </defs>
  <g
     inkscape:label="Layer 1"
     inkscape:groupmode="layer"
     id="layer1"
     transform="translate(-6.6083885,-57.21915)">
    <g
       style="isolation:isolate"
       id="g83"
       transform="matrix(0.35277778,0,0,0.35277778,-69.591612,-9.8982333)">
      <g
         id="g61">
        <linearGradient
           id="_lgradient_0"
           x1="0"
           y1="0.5"
           x2="1"
           y2="0.5"
           gradientTransform="matrix(598,0,0,390,216,190.254)"
           gradientUnits="userSpaceOnUse">
          <stop
             offset="0%"
             stop-opacity="1"
             style="stop-color:rgb(103,58,183)"
             id="stop52" />
          <stop
             offset="100%"
             stop-opacity="1"
             style="stop-color:rgb(255,87,34)"
             id="stop54" />
        </linearGradient>
        <path
           d="m 216,190.254 h 182 v 182 H 216 Z m 208,0 h 182 v 182 H 424 Z m 208,0 h 182 v 182 H 632 Z m -416,208 h 182 v 182 H 216 Z m 208,0 h 182 v 182 H 424 Z m 208,0 h 182 v 182 H 632 Z"
           fill-rule="evenodd"
           fill="url(#_lgradient_0)"
           id="path57"
           style="fill:url(#_lgradient_0)" />
        <path
           d="m 658,450.254 v 52 26 0 0 26 0 h 104 v 0 h 26 v -130 h -26 v 0 0 0 h -78 -26 v 0 z m 26,0 v 52 0 26 0 h 78 v -78 z m -234,78 v -104 0 h 26 v 0 0 h 78 v 26 0 0 26 h -26 v -26 h -52 v 26 h 52 v 26 h -52 v 0 26 h 78 v 26 H 450 v 0 z m 312,-182 h 26 v -130 h -26 v 0 0 104 h -78 v -26 h -26 v 0 26 26 h 104 v 0 0 0 0 0 0 z m -416,-78 v 78 h 26 v -130 h -26 v 0 0 26 h -26 v 26 h 26 v 0 0 0 0 0 0 0 0 0 0 z m -78,-26 v -26 h -26 v 0 130 h 26 v -78 h 26 v -26 h -26 v 0 0 0 0 0 0 0 0 0 0 0 z m 26,26 h 26 v 26 h -26 v -26 0 0 0 0 0 0 0 0 0 0 z m 0,156 h 26 v 130 h -26 v -130 0 0 0 0 0 z m 156,-156 h 130 v 26 H 450 v -26 0 0 0 0 0 z m 52,-26 h 26 v 26 h -26 v -26 0 0 0 0 0 z m 0,-26 h 26 v 26 h -26 v -26 0 0 0 0 0 z m -26,104 h 26 v 26 h -26 v -26 0 0 0 0 0 z m 52,0 h 26 v 26 h -26 v -26 0 0 0 0 0 z m 0,-26 h 26 v 26 h -26 v -26 0 0 0 0 0 z m -52,0 h 26 v 26 h -26 v -26 0 0 0 0 0 z m 52,208 h 26 v 26 h -26 v -26 z"
           fill-rule="evenodd"
           fill="#ffffff"
           id="path59" />
      </g>
    </g>
  </g>
</svg>
